<svg width="24" height="24" viewBox="0 0 24 24" fill="none" xmlns="http://www.w3.org/2000/svg">
<path d="M14.4383 18.226C14.4824 18.3547 16.8517 14.8359 16.7376 14.5455C16.7963 14.4285 16.8119 14.4096 16.889 14.3731C16.9475 14.3443 16.9877 14.3072 17.017 14.2568C17.0544 14.1925 17.054 14.1691 17.0217 14.0527C17.0011 13.9802 16.9627 13.9021 16.9372 13.878C16.9117 13.8539 16.8945 13.8276 16.9005 13.8172C16.9197 13.7842 17.2962 13.3231 17.4128 13.1019C17.5408 12.8626 17.6384 12.7033 18.008 12.1424C18.2784 11.7309 18.4771 11.3954 18.6012 11.1304C18.6583 11.0118 18.7568 10.8584 18.8966 10.6825C19.0734 10.4561 19.2037 10.245 19.1961 10.1953C19.1916 10.1655 19.085 10.2002 19.0295 10.2493C18.9951 10.277 18.9125 10.4015 18.8441 10.5258C18.7758 10.6502 18.7037 10.7771 18.6841 10.8086C18.6665 10.8397 18.5685 11.0093 18.4716 11.1868C18.2377 11.611 18.0036 11.9946 17.4868 12.8018L17.0171 13.5525L16.8509 13.4745C16.6986 13.4046 16.677 13.3897 16.5873 13.2841C16.5003 13.1777 16.4861 13.1462 16.4256 12.8902C16.3876 12.7356 16.2563 12.2176 16.1334 11.737C15.8778 10.7446 15.8025 10.4102 15.6969 9.78393C15.627 9.37603 15.5866 9.2456 15.5153 9.20419C15.4476 9.1648 15.4889 9.55379 15.5952 9.93876C15.6504 10.1359 15.7087 10.3836 15.7264 10.4892C15.7864 10.8659 15.8443 11.1064 16.0206 11.711C16.2636 12.545 16.3808 13.0874 16.381 13.399L16.382 13.4693L16.2968 13.464C16.1953 13.4585 16.0644 13.5358 16.0068 13.6349C15.9856 13.6714 15.9626 13.751 15.9544 13.809C15.9443 13.8984 15.9283 13.938 15.8681 14.0216C15.7812 14.1431 15.6782 14.2204 15.6187 14.2067C15.5689 14.1964 15.5517 14.1259 15.489 13.6618C15.3281 9.40839 12.9614 2.24145 11.0756 2.72762C10.1359 2.96986 9.89487 3.31317 9.9011 3.7151C9.79653 3.64262 9.6869 3.57217 9.56495 3.49804C8.98216 3.14075 8.64152 3.01485 8.16459 2.97946L7.93683 2.96334L7.77811 3.05243C7.57257 3.1701 7.37721 3.32624 7.28857 3.44676C7.22534 3.53556 7.21569 3.56017 7.20937 3.67506C7.20175 3.79617 7.19311 3.81904 7.04598 4.0962C6.90318 4.36193 6.88819 4.39972 6.8794 4.51085C6.87343 4.57712 6.83479 4.74762 6.79162 4.88991C6.74945 5.03047 6.71412 5.19127 6.71523 5.24538C6.71532 5.30123 6.74751 5.43385 6.7866 5.54259C6.86945 5.77206 6.87468 5.87507 6.81697 6.06238C6.79423 6.13751 6.76883 6.26921 6.76073 6.35517C6.74479 6.52259 6.7679 6.94286 6.79807 7.07895C6.82825 7.21505 6.81645 7.25934 6.66977 7.54374L6.53118 7.81423L6.49647 8.09396C6.44344 8.49323 6.39592 8.71901 6.31538 8.9256C6.19364 9.24309 6.11729 9.62648 6.11246 9.94681C6.10949 10.252 6.15794 10.6846 6.21758 10.882C6.25947 11.018 6.42033 11.1812 6.72567 11.3958C6.95859 11.5591 7.25442 11.7101 7.83153 11.9571C8.04204 12.0469 8.28905 12.1579 8.38071 12.2042L8.5494 12.286L8.32937 12.3046C7.80149 12.3488 7.21439 12.447 7.04783 12.5176C7.00532 12.5347 6.72882 12.7065 6.43297 12.8996C5.77088 13.3308 5.53378 13.5347 5.36815 13.8197C5.31664 13.9084 5.30817 13.943 5.31142 14.0774C5.31739 14.4551 5.16328 14.9723 4.92291 15.3859C4.86938 15.478 4.86781 15.4887 4.90141 15.5989C5.06202 16.1386 5.07566 16.2512 5.04888 16.7773L5.0316 17.095L5.17635 17.314C5.25626 17.4325 5.40514 17.7004 5.50661 17.9058C5.66803 18.2321 5.69301 18.2931 5.68519 18.3746C5.67527 18.5036 5.73334 18.7117 5.81891 18.8405C5.91653 18.9926 6.05189 19.1317 6.32325 19.3568C6.64068 19.6226 6.734 19.7141 6.85074 19.8772L6.94819 20.0175L7.15063 20.1212C7.47427 20.2884 7.76254 20.4164 7.81637 20.4198C7.84603 20.4208 7.96331 20.475 8.11204 20.5591C8.3407 20.6896 8.36879 20.7013 8.53985 20.731C8.63971 20.7472 8.89556 20.775 9.10986 20.7902C9.32242 20.8045 9.57552 20.833 9.6696 20.8552L9.84183 20.8948L10.0465 20.7906C10.7682 20.4289 11.201 20.0922 12.6426 18.7796C13.1478 18.3223 13.5226 18.0054 13.5916 17.9828C13.6184 17.9727 13.654 17.9795 13.678 17.9981C13.7132 18.0255 13.7156 18.0455 13.6923 18.1296C13.6196 18.3826 13.4808 18.6414 13.1065 19.2096C12.7351 19.7726 12.6315 19.9588 12.5307 20.2443C12.4348 20.5094 12.3951 20.9257 12.4557 20.9934C12.5257 21.069 12.6234 21.0328 12.8567 20.8475C13.2938 20.4994 13.529 20.1386 13.9829 19.1215C14.2932 18.4277 14.4052 18.2069 14.4383 18.226Z" fill="black"/>
</svg>
