<svg width="16" height="18" viewBox="0 0 16 18" fill="none" xmlns="http://www.w3.org/2000/svg">
<path d="M7.90825 0.000309997C8.17946 0.0111486 8.44029 0.28606 8.48637 0.611638L9.24711 5.92023C9.29331 6.24514 9.58097 6.41155 9.88578 6.28937L14.8643 4.29328C15.1684 4.17109 15.519 4.24906 15.6426 4.46613C15.7652 4.68306 15.6555 5.02776 15.3975 5.23078L14.8741 5.64289C14.858 5.66712 14.8487 5.68195 14.8487 5.68195L11.127 8.61359C11.1036 8.63208 11.0836 8.65278 11.0645 8.67316C10.9095 8.87384 10.9414 9.13928 11.1622 9.31183L15.4219 12.6419C15.6808 12.844 15.7888 13.1902 15.6622 13.4095C15.5358 13.6279 15.1828 13.7056 14.878 13.5833L14.8047 13.553C14.7782 13.5848 14.7637 13.6058 14.7637 13.6058L9.87602 11.6439C9.5722 11.5222 9.28666 11.6883 9.24418 12.014L8.52641 17.4134C8.48293 17.7386 8.19884 18.005 7.89555 18.0052C7.59172 18.0052 7.30699 17.7385 7.26371 17.4134L6.54692 12.014C6.50424 11.6883 6.22052 11.522 5.91508 11.6439L0.945354 13.64C0.641026 13.7619 0.287941 13.6647 0.161175 13.4241C0.0352245 13.1838 0.142611 12.8211 0.401409 12.6185L0.457073 12.5736C0.453181 12.562 0.450237 12.556 0.450237 12.556L4.59282 9.30402C4.8501 9.10177 4.84966 8.77124 4.58891 8.5716L0.27055 5.25031C0.010718 5.04996 -0.0774088 4.67024 0.0742607 4.40754C0.226251 4.14456 0.59928 4.03152 0.902386 4.15656L5.93754 6.23664C6.24073 6.36209 6.52616 6.19862 6.57328 5.87336L7.33012 0.572576C7.37651 0.247834 7.63638 -0.0101995 7.90825 0.000309997Z" fill="black"/>
</svg>
