<svg width="24" height="24" viewBox="0 0 24 24" fill="none" xmlns="http://www.w3.org/2000/svg">
<mask id="path-1-inside-1_159_5514" fill="white">
<path d="M21.9932 4.47848C21.5207 4.54223 20.8551 4.70535 20.4182 4.86098C19.7019 5.11785 18.5919 5.64473 17.9619 6.0291C17.0376 6.5916 16.1469 7.28348 15.0276 8.30348C14.1988 9.0591 13.6363 9.73035 13.1901 10.4954C13.1301 10.5985 13.0607 10.7147 13.0363 10.7522C12.9426 10.9041 12.8413 10.8047 12.8282 10.546C12.8207 10.4241 12.8244 10.4016 12.8694 10.336C12.9032 10.2854 12.9182 10.2366 12.9182 10.1822C12.9182 10.1129 12.9069 10.0941 12.8263 10.0154C12.7757 9.9666 12.7082 9.9216 12.6763 9.9141C12.6444 9.9066 12.6182 9.89348 12.6182 9.88223C12.6182 9.8466 12.8244 9.51473 12.9632 9.32723C13.1151 9.12473 13.2276 8.9916 13.6476 8.5266C13.9551 8.18535 14.1857 7.9041 14.3376 7.67723C14.4069 7.57598 14.5194 7.44848 14.6732 7.30598C14.8682 7.12223 15.0182 6.94598 15.0182 6.8991C15.0182 6.87098 14.9151 6.88785 14.8569 6.92535C14.8213 6.94598 14.7276 7.0491 14.6469 7.1541C14.5663 7.2591 14.4819 7.36598 14.4594 7.39223C14.4388 7.41848 14.3244 7.56098 14.2101 7.71098C13.9344 8.0691 13.6644 8.38973 13.0738 9.06098L12.5882 9.6141L12.4176 9.6291C12.2619 9.6441 12.2376 9.64223 12.1157 9.5991C11.9957 9.5541 11.9694 9.53535 11.8007 9.35723C11.6976 9.25035 11.3488 8.8941 11.0244 8.5641C10.3532 7.88348 10.1357 7.6491 9.75695 7.19348C9.50945 6.89723 9.4157 6.81098 9.33882 6.81098C9.2657 6.81098 9.48132 7.10535 9.74757 7.36598C9.88445 7.4991 10.0476 7.6716 10.1113 7.74848C10.3363 8.0241 10.4957 8.19098 10.9213 8.59598C11.5082 9.15473 11.8569 9.53723 12.0032 9.78848L12.0369 9.84473L11.9657 9.88035C11.8813 9.92348 11.8119 10.0472 11.8119 10.1541C11.8119 10.1935 11.8307 10.2685 11.8513 10.3191C11.8851 10.396 11.8907 10.4354 11.8813 10.531C11.8682 10.6697 11.8213 10.7804 11.7669 10.7972C11.7219 10.8122 11.6751 10.7635 11.4069 10.4185C10.3457 9.06098 8.78757 7.76535 6.84507 6.62535C5.8907 6.06473 4.37382 5.46098 3.23007 5.18723C2.6657 5.05223 2.33945 5.00723 1.86507 4.99785C1.22757 4.98285 0.893823 5.04098 0.492573 5.23598L0.301323 5.32973L0.215073 5.47598C0.104448 5.66723 0.0200725 5.88473 0.00507252 6.02348C-0.00430248 6.12473 -0.000552475 6.1491 0.0481975 6.24473C0.0988225 6.34598 0.102573 6.36848 0.113823 6.66098C0.123198 6.94223 0.128823 6.97973 0.173823 7.07348C0.200073 7.12973 0.248823 7.28535 0.280698 7.42035C0.312573 7.55348 0.359448 7.69973 0.385698 7.74285C0.411948 7.78785 0.500073 7.87973 0.582573 7.9491C0.756948 8.09535 0.809448 8.17598 0.850698 8.3541C0.867573 8.42535 0.908823 8.54348 0.942573 8.6166C1.0082 8.7591 1.22382 9.08723 1.31195 9.18285C1.40007 9.27848 1.41132 9.31973 1.42632 9.61785L1.44132 9.90098L1.54445 10.1429C1.68882 10.4897 1.75632 10.6941 1.7882 10.8985C1.83882 11.2116 1.95695 11.5566 2.1032 11.8172C2.24382 12.0647 2.4857 12.391 2.62632 12.5222C2.72382 12.6122 2.93007 12.6685 3.27695 12.6985C3.54132 12.721 3.8507 12.7041 4.43195 12.6329C4.64382 12.6066 4.89507 12.5804 4.9907 12.5747L5.16507 12.5616L4.99632 12.6797C4.59132 12.9629 4.16382 13.3172 4.06257 13.4522C4.03632 13.486 3.89382 13.7541 3.7457 14.0485C3.41382 14.7066 3.3182 14.9822 3.3182 15.2897C3.3182 15.3854 3.32757 15.4172 3.3932 15.5241C3.57507 15.826 3.6932 16.3154 3.6932 16.7616C3.6932 16.861 3.69695 16.8704 3.7757 16.9435C4.1582 17.3035 4.22195 17.3879 4.44695 17.8247L4.58195 18.0891L4.80132 18.1979C4.92132 18.256 5.16695 18.4022 5.34507 18.5204C5.6282 18.7079 5.67695 18.7454 5.70882 18.8147C5.76132 18.9235 5.9057 19.0641 6.03507 19.1279C6.18507 19.2047 6.35945 19.2535 6.68382 19.3079C7.06445 19.3735 7.18257 19.4035 7.3532 19.4804L7.49757 19.5479L7.70945 19.5366C8.04882 19.5197 8.34132 19.4879 8.38632 19.4654C8.4107 19.4522 8.5307 19.441 8.69007 19.4391C8.9357 19.4372 8.96382 19.4335 9.1157 19.3772C9.20382 19.3435 9.4232 19.246 9.6032 19.1579C9.78132 19.0697 9.99882 18.9741 10.0851 18.9479L10.2426 18.8991L10.3588 18.7191C10.7713 18.0891 10.9626 17.6147 11.5101 15.8804C11.7032 15.2747 11.8569 14.8435 11.9019 14.7929C11.9188 14.7722 11.9507 14.761 11.9788 14.7647C12.0201 14.7704 12.0313 14.7854 12.0519 14.8641C12.1119 15.1022 12.1213 15.376 12.0857 16.0097C12.0501 16.6379 12.0538 16.8366 12.1063 17.1141C12.1532 17.3729 12.3163 17.7272 12.3969 17.7535C12.4888 17.7816 12.5507 17.7066 12.6519 17.4479C12.8413 16.9622 12.8619 16.561 12.7513 15.5279C12.6763 14.8229 12.6632 14.5922 12.6988 14.5922C12.7138 14.5922 12.7344 14.6035 12.7457 14.6166C12.7569 14.6297 12.8638 14.9241 12.9801 15.2691C13.5669 16.9885 14.0601 18.2241 14.3001 18.5785C14.3432 18.6404 14.4126 18.7229 14.4557 18.7622C14.5326 18.8316 14.7013 18.9235 14.7538 18.9235C14.7688 18.9235 14.8476 18.9666 14.9301 19.0191C15.3107 19.2629 15.6032 19.3266 16.4807 19.3547C16.7957 19.3641 17.0826 19.3772 17.1201 19.3829C17.1688 19.3885 17.2269 19.3754 17.3376 19.3285C17.6413 19.1991 18.1082 19.066 18.5282 18.9891L18.7101 18.9554L18.7813 18.8504C18.9876 18.5522 19.3794 18.2391 19.8744 17.9822C19.9719 17.9316 20.0638 17.8791 20.0769 17.866C20.0901 17.8529 20.1388 17.7422 20.1857 17.6185C20.2719 17.3879 20.3544 17.2416 20.4257 17.1835C20.4482 17.1666 20.4782 17.1254 20.4913 17.0916C20.5176 17.0279 20.6169 16.9266 20.8101 16.7654C20.9901 16.6154 21.0182 16.5479 21.0182 16.2797C21.0182 15.9422 21.0688 15.7697 21.3107 15.2822L21.4476 15.0066L21.4101 14.8604C21.3201 14.521 21.1776 14.1966 20.8419 13.5797C20.6563 13.2385 20.6076 13.1616 20.5157 13.0772C20.3788 12.9479 20.1238 12.7791 19.6851 12.5222C19.3663 12.3366 19.1844 12.2166 19.2557 12.2391C19.3213 12.2597 20.0994 12.3235 20.4088 12.3347C20.9357 12.3535 21.6688 12.2822 21.8394 12.1941C21.9294 12.1472 21.9444 12.1304 22.1057 11.8641C22.4394 11.311 22.6119 10.8404 22.6119 10.4841C22.6119 10.3679 22.6288 10.3004 22.7432 9.96285C22.8951 9.5166 22.9457 9.2991 22.9626 9.02348C22.9738 8.8341 22.9757 8.82473 23.0376 8.7516C23.1332 8.64098 23.2513 8.38223 23.3807 8.00535C23.5119 7.62098 23.5682 7.50098 23.6976 7.32848C23.7501 7.2591 23.7988 7.18973 23.8082 7.17098C23.8382 7.11285 23.8663 6.9741 23.8869 6.7641C23.9001 6.64973 23.9301 6.49598 23.9544 6.42098C24.0088 6.2541 24.0107 6.1866 23.9601 5.98785C23.9188 5.82098 23.9226 5.70285 23.9713 5.63723C24.0126 5.58285 24.0069 5.38785 23.9601 5.26598C23.7407 4.67723 22.9269 4.35285 21.9932 4.47848Z"/>
</mask>
<path d="M21.9932 4.47848C21.5207 4.54223 20.8551 4.70535 20.4182 4.86098C19.7019 5.11785 18.5919 5.64473 17.9619 6.0291C17.0376 6.5916 16.1469 7.28348 15.0276 8.30348C14.1988 9.0591 13.6363 9.73035 13.1901 10.4954C13.1301 10.5985 13.0607 10.7147 13.0363 10.7522C12.9426 10.9041 12.8413 10.8047 12.8282 10.546C12.8207 10.4241 12.8244 10.4016 12.8694 10.336C12.9032 10.2854 12.9182 10.2366 12.9182 10.1822C12.9182 10.1129 12.9069 10.0941 12.8263 10.0154C12.7757 9.9666 12.7082 9.9216 12.6763 9.9141C12.6444 9.9066 12.6182 9.89348 12.6182 9.88223C12.6182 9.8466 12.8244 9.51473 12.9632 9.32723C13.1151 9.12473 13.2276 8.9916 13.6476 8.5266C13.9551 8.18535 14.1857 7.9041 14.3376 7.67723C14.4069 7.57598 14.5194 7.44848 14.6732 7.30598C14.8682 7.12223 15.0182 6.94598 15.0182 6.8991C15.0182 6.87098 14.9151 6.88785 14.8569 6.92535C14.8213 6.94598 14.7276 7.0491 14.6469 7.1541C14.5663 7.2591 14.4819 7.36598 14.4594 7.39223C14.4388 7.41848 14.3244 7.56098 14.2101 7.71098C13.9344 8.0691 13.6644 8.38973 13.0738 9.06098L12.5882 9.6141L12.4176 9.6291C12.2619 9.6441 12.2376 9.64223 12.1157 9.5991C11.9957 9.5541 11.9694 9.53535 11.8007 9.35723C11.6976 9.25035 11.3488 8.8941 11.0244 8.5641C10.3532 7.88348 10.1357 7.6491 9.75695 7.19348C9.50945 6.89723 9.4157 6.81098 9.33882 6.81098C9.2657 6.81098 9.48132 7.10535 9.74757 7.36598C9.88445 7.4991 10.0476 7.6716 10.1113 7.74848C10.3363 8.0241 10.4957 8.19098 10.9213 8.59598C11.5082 9.15473 11.8569 9.53723 12.0032 9.78848L12.0369 9.84473L11.9657 9.88035C11.8813 9.92348 11.8119 10.0472 11.8119 10.1541C11.8119 10.1935 11.8307 10.2685 11.8513 10.3191C11.8851 10.396 11.8907 10.4354 11.8813 10.531C11.8682 10.6697 11.8213 10.7804 11.7669 10.7972C11.7219 10.8122 11.6751 10.7635 11.4069 10.4185C10.3457 9.06098 8.78757 7.76535 6.84507 6.62535C5.8907 6.06473 4.37382 5.46098 3.23007 5.18723C2.6657 5.05223 2.33945 5.00723 1.86507 4.99785C1.22757 4.98285 0.893823 5.04098 0.492573 5.23598L0.301323 5.32973L0.215073 5.47598C0.104448 5.66723 0.0200725 5.88473 0.00507252 6.02348C-0.00430248 6.12473 -0.000552475 6.1491 0.0481975 6.24473C0.0988225 6.34598 0.102573 6.36848 0.113823 6.66098C0.123198 6.94223 0.128823 6.97973 0.173823 7.07348C0.200073 7.12973 0.248823 7.28535 0.280698 7.42035C0.312573 7.55348 0.359448 7.69973 0.385698 7.74285C0.411948 7.78785 0.500073 7.87973 0.582573 7.9491C0.756948 8.09535 0.809448 8.17598 0.850698 8.3541C0.867573 8.42535 0.908823 8.54348 0.942573 8.6166C1.0082 8.7591 1.22382 9.08723 1.31195 9.18285C1.40007 9.27848 1.41132 9.31973 1.42632 9.61785L1.44132 9.90098L1.54445 10.1429C1.68882 10.4897 1.75632 10.6941 1.7882 10.8985C1.83882 11.2116 1.95695 11.5566 2.1032 11.8172C2.24382 12.0647 2.4857 12.391 2.62632 12.5222C2.72382 12.6122 2.93007 12.6685 3.27695 12.6985C3.54132 12.721 3.8507 12.7041 4.43195 12.6329C4.64382 12.6066 4.89507 12.5804 4.9907 12.5747L5.16507 12.5616L4.99632 12.6797C4.59132 12.9629 4.16382 13.3172 4.06257 13.4522C4.03632 13.486 3.89382 13.7541 3.7457 14.0485C3.41382 14.7066 3.3182 14.9822 3.3182 15.2897C3.3182 15.3854 3.32757 15.4172 3.3932 15.5241C3.57507 15.826 3.6932 16.3154 3.6932 16.7616C3.6932 16.861 3.69695 16.8704 3.7757 16.9435C4.1582 17.3035 4.22195 17.3879 4.44695 17.8247L4.58195 18.0891L4.80132 18.1979C4.92132 18.256 5.16695 18.4022 5.34507 18.5204C5.6282 18.7079 5.67695 18.7454 5.70882 18.8147C5.76132 18.9235 5.9057 19.0641 6.03507 19.1279C6.18507 19.2047 6.35945 19.2535 6.68382 19.3079C7.06445 19.3735 7.18257 19.4035 7.3532 19.4804L7.49757 19.5479L7.70945 19.5366C8.04882 19.5197 8.34132 19.4879 8.38632 19.4654C8.4107 19.4522 8.5307 19.441 8.69007 19.4391C8.9357 19.4372 8.96382 19.4335 9.1157 19.3772C9.20382 19.3435 9.4232 19.246 9.6032 19.1579C9.78132 19.0697 9.99882 18.9741 10.0851 18.9479L10.2426 18.8991L10.3588 18.7191C10.7713 18.0891 10.9626 17.6147 11.5101 15.8804C11.7032 15.2747 11.8569 14.8435 11.9019 14.7929C11.9188 14.7722 11.9507 14.761 11.9788 14.7647C12.0201 14.7704 12.0313 14.7854 12.0519 14.8641C12.1119 15.1022 12.1213 15.376 12.0857 16.0097C12.0501 16.6379 12.0538 16.8366 12.1063 17.1141C12.1532 17.3729 12.3163 17.7272 12.3969 17.7535C12.4888 17.7816 12.5507 17.7066 12.6519 17.4479C12.8413 16.9622 12.8619 16.561 12.7513 15.5279C12.6763 14.8229 12.6632 14.5922 12.6988 14.5922C12.7138 14.5922 12.7344 14.6035 12.7457 14.6166C12.7569 14.6297 12.8638 14.9241 12.9801 15.2691C13.5669 16.9885 14.0601 18.2241 14.3001 18.5785C14.3432 18.6404 14.4126 18.7229 14.4557 18.7622C14.5326 18.8316 14.7013 18.9235 14.7538 18.9235C14.7688 18.9235 14.8476 18.9666 14.9301 19.0191C15.3107 19.2629 15.6032 19.3266 16.4807 19.3547C16.7957 19.3641 17.0826 19.3772 17.1201 19.3829C17.1688 19.3885 17.2269 19.3754 17.3376 19.3285C17.6413 19.1991 18.1082 19.066 18.5282 18.9891L18.7101 18.9554L18.7813 18.8504C18.9876 18.5522 19.3794 18.2391 19.8744 17.9822C19.9719 17.9316 20.0638 17.8791 20.0769 17.866C20.0901 17.8529 20.1388 17.7422 20.1857 17.6185C20.2719 17.3879 20.3544 17.2416 20.4257 17.1835C20.4482 17.1666 20.4782 17.1254 20.4913 17.0916C20.5176 17.0279 20.6169 16.9266 20.8101 16.7654C20.9901 16.6154 21.0182 16.5479 21.0182 16.2797C21.0182 15.9422 21.0688 15.7697 21.3107 15.2822L21.4476 15.0066L21.4101 14.8604C21.3201 14.521 21.1776 14.1966 20.8419 13.5797C20.6563 13.2385 20.6076 13.1616 20.5157 13.0772C20.3788 12.9479 20.1238 12.7791 19.6851 12.5222C19.3663 12.3366 19.1844 12.2166 19.2557 12.2391C19.3213 12.2597 20.0994 12.3235 20.4088 12.3347C20.9357 12.3535 21.6688 12.2822 21.8394 12.1941C21.9294 12.1472 21.9444 12.1304 22.1057 11.8641C22.4394 11.311 22.6119 10.8404 22.6119 10.4841C22.6119 10.3679 22.6288 10.3004 22.7432 9.96285C22.8951 9.5166 22.9457 9.2991 22.9626 9.02348C22.9738 8.8341 22.9757 8.82473 23.0376 8.7516C23.1332 8.64098 23.2513 8.38223 23.3807 8.00535C23.5119 7.62098 23.5682 7.50098 23.6976 7.32848C23.7501 7.2591 23.7988 7.18973 23.8082 7.17098C23.8382 7.11285 23.8663 6.9741 23.8869 6.7641C23.9001 6.64973 23.9301 6.49598 23.9544 6.42098C24.0088 6.2541 24.0107 6.1866 23.9601 5.98785C23.9188 5.82098 23.9226 5.70285 23.9713 5.63723C24.0126 5.58285 24.0069 5.38785 23.9601 5.26598C23.7407 4.67723 22.9269 4.35285 21.9932 4.47848Z" stroke="black" stroke-width="0.4" mask="url(#path-1-inside-1_159_5514)"/>
</svg>
